<svg width="39" height="39" viewBox="0 0 39 39" fill="none" xmlns="http://www.w3.org/2000/svg">
<path d="M36.5452 21.2314C36.2387 24.5482 34.9939 27.7092 32.9564 30.3445C30.919 32.9797 28.1731 34.9801 25.0402 36.1118C21.9073 37.2434 18.517 37.4594 15.2658 36.7344C12.0146 36.0095 9.03714 34.3736 6.68176 32.0183C4.32638 29.6629 2.69051 26.6854 1.96558 23.4342C1.24065 20.1831 1.45663 16.7927 2.58825 13.6598C3.71988 10.5269 5.72034 7.78104 8.35556 5.74358C10.9908 3.70613 14.1518 2.46131 17.4686 2.15479C15.5267 4.78199 14.5923 8.01893 14.8352 11.2769C15.0782 14.5348 16.4824 17.5974 18.7925 19.9075C21.1026 22.2176 24.1652 23.6219 27.4231 23.8648C30.6811 24.1078 33.918 23.1733 36.5452 21.2314Z" stroke="#666666" stroke-width="3" stroke-linecap="round" stroke-linejoin="round"/>
</svg>
