<svg width="39" height="48" viewBox="0 0 39 48" fill="none" xmlns="http://www.w3.org/2000/svg">
<path d="M1.7287 10.802H5.61759H36.7287" stroke="#666666" stroke-width="3" stroke-linecap="round" stroke-linejoin="round"/>
<path d="M32.8397 10.8019V41.2268C32.8397 42.3795 32.43 43.485 31.7007 44.3002C30.9714 45.1153 29.9822 45.5732 28.9508 45.5732H9.5064C8.475 45.5732 7.48585 45.1153 6.75654 44.3002C6.02723 43.485 5.61751 42.3795 5.61751 41.2268V10.8019M11.4508 10.8019V6.45554C11.4508 5.3028 11.8606 4.19727 12.5899 3.38216C13.3192 2.56705 14.3083 2.10913 15.3397 2.10913H23.1175C24.1489 2.10913 25.1381 2.56705 25.8674 3.38216C26.5967 4.19727 27.0064 5.3028 27.0064 6.45554V10.8019" stroke="#666666" stroke-width="3" stroke-linecap="round" stroke-linejoin="round"/>
<path d="M15.34 21.668V34.7072" stroke="#666666" stroke-width="3" stroke-linecap="round" stroke-linejoin="round"/>
<path d="M23.1178 21.668V34.7072" stroke="#666666" stroke-width="3" stroke-linecap="round" stroke-linejoin="round"/>
</svg>
